<?xml version="1.0" encoding="iso-8859-1"?>
<!-- Generator: Adobe Illustrator 24.0.1, SVG Export Plug-In . SVG Version: 6.00 Build 0)  -->
<svg version="1.1" id="&#x56FE;&#x5C42;_2" xmlns="http://www.w3.org/2000/svg" xmlns:xlink="http://www.w3.org/1999/xlink" x="0px"
	 y="0px" viewBox="0 0 340.157 170.079" style="enable-background:new 0 0 340.157 170.079;" xml:space="preserve">
<path style="fill:none;stroke:#FFFFFF;stroke-width:0.523;stroke-linecap:round;stroke-miterlimit:10;" d="M140.07,49.871
	c0,0,0.438-0.134,0.696-0.306c0.108-0.072,0.311-0.272,0.413-0.407c0.172-0.227,0.28-0.513,0.285-0.749
	c0.008-0.376-0.214-0.755-0.325-0.852c-0.053-0.046-0.138-0.13-0.247-0.192c-0.107-0.061-0.238-0.101-0.363-0.107
	c-0.056-0.003-0.348-0.03-0.48,0.191c-0.046,0.078-0.098,0.23-0.004,0.317c0.071,0.066,0.287,0.069,0.407,0.13
	c0.109,0.055,0.268,0.16,0.359,0.289c0.142,0.201,0.085,0.563,0.03,0.738c-0.04,0.128-0.113,0.265-0.321,0.424
	c-0.144,0.11-0.55,0.315-0.55,0.315L140.07,49.871z"/>
<path style="fill:none;stroke:#FFFFFF;stroke-linecap:round;stroke-miterlimit:10;" d="M90.198,59.766c0,0-0.185-0.81-0.115-1.625
	c0.052-0.604,0.302-1.094,0.302-1.094s-2.125,3.469-1.469,4.75c0.656,1.281,1.563,0.938,2.094,0.781s3.094-2.437,4.656-4.781
	c1.563-2.344,7.187-11.375,7.187-11.375"/>
<path style="fill:none;stroke:#FFFFFF;stroke-linecap:round;stroke-miterlimit:10;" d="M109.5,45.287c0,0-7.115,9.354-8.458,11.385
	c-1.344,2.031-2.875,4.219-3.031,5c-0.156,0.781,0.219,1.313,1.094,0.281s1.531-1.969,1.156-3.281s-0.375-1.844-1.969-2.5
	c0,0,2.481,0.561,2.938,0.75c0.979,0.406,2.509-0.125,2.509-0.125"/>
<path style="fill:none;stroke:#FFFFFF;stroke-linecap:round;stroke-miterlimit:10;" d="M101.667,61.61c0,0,2.188-0.938,2.469-1.594
	c0.281-0.656-0.531-0.875-1.563,0s-1.438,1.956-0.906,2.509s2.406-0.322,3.125-0.603"/>
<path style="fill:none;stroke:#FFFFFF;stroke-linecap:round;stroke-miterlimit:10;" d="M107.479,59.954l-1.344,1.688
	c0,0-1.219,1.534,0.25,1.064s3.438-1.501,4.375-3.001s-4.795,6.844-7.022,9.188s-4.04,3.531-4.04,3.531s-2.406,0.844-0.813-2.438
	s8.688-6.5,8.688-6.5s1.737-1.031,3.29-1.25"/>
<path style="fill:none;stroke:#FFFFFF;stroke-linecap:round;stroke-miterlimit:10;" d="M112.698,61.454
	c-1.281,2.563-1.656,2.906-1.656,2.906"/>
<path style="fill:none;stroke:#FFFFFF;stroke-linecap:round;stroke-miterlimit:10;" d="M123.26,64.798"/>
<path style="fill:none;stroke:#FFFFFF;stroke-linecap:round;stroke-miterlimit:10;" d="M123.239,64.601c0,0,0.198-3.094,1.781-6.219
	c1.583-3.125,4.625-7.417,6.75-9.375s3.458-2.563,4.25-2.781s2.75-0.51,0.625,2.406s-2.24,3.063-3.096,3.991
	c-1.473,1.598-4.123,4.384-6.279,6.009s-4.438,2.781-6.344,3.219s-4.063,0.938-5.781,0s-2.469-3.938,0.313-2.844
	s13.625,1.813,16.344,1.031"/>
<path style="fill:none;stroke:#FFFFFF;stroke-linecap:round;stroke-miterlimit:10;" d="M137.979,61.683
	c1.021-0.479,2.729-1.458,2.729-1.458s1.104-0.625,0.167,0.979s-1.354,1.938,0.063,1.208c1.417-0.729,3.125-1.875,3.313-2.042
	c0.188-0.167-0.958,1.063-0.958,1.875s0.458,0.479,1.708-0.125s2.396-1.542,2.563-1.646c0.167-0.104-0.958,1.063-0.729,1.833
	c0.229,0.771,1.479,0.375,1.938,0.292"/>
<path style="fill:none;stroke:#FFFFFF;stroke-linecap:round;stroke-miterlimit:10;" d="M103.25,101.537
	c3.75-2.333,17.917-11.75,24.667-15.292c6.75-3.542,12.5-8.104,13.021-10.083c0.521-1.979-1.833-1.479-3.771-0.979
	c-1.938,0.5-6.333,2.854-7.521,6.917s-1.104,6.979-2.687,9.396c-1.583,2.417-2.417,4.25-5.583,5.542
	c-3.167,1.292-6.833,1.417-10.042,1.208c-3.208-0.208-6.917-5.667-2.042-4.042s9.792,1.917,14.125,1.333
	c4.333-0.583,6.167-1.208,7.75-1.958"/>
<path style="fill:none;stroke:#FFFFFF;stroke-linecap:round;stroke-miterlimit:10;" d="M130.875,95.704
	c3.583-2.25,9.417-6.625,10.583-7.75c1.167-1.125,5.375-5.625,6.25-7.125s3.417-4.5,0.333-3.917
	c-3.083,0.583-11.542,13.375-12.333,15.083c-0.792,1.708-1.5,3.208-1.5,3.208s-2.333,4.958,0.5,3.125
	c2.833-1.833,5.125-3.458,5.125-3.458s-0.917,1.886-0.917,2.797s1.083,1.839,4.167,0"/>
<path style="fill:none;stroke:#FFFFFF;stroke-linecap:round;stroke-miterlimit:10;" d="M151.604,88.641
	c-0.375,0.688-0.875,1.313-0.875,1.313"/>
<path style="fill:none;stroke:#FFFFFF;stroke-linecap:round;stroke-miterlimit:10;" d="M143.104,97.266
	c1.188-0.375,3.688-2.313,4.563-3.25s-1.938,2.678-2,3.651c-0.063,0.974,0.337,1.536,2.169,0.849
	c1.831-0.688,2.894-1.313,2.894-1.313"/>
<path style="fill:none;stroke:#FFFFFF;stroke-linecap:round;stroke-miterlimit:10;" d="M151.604,95.766
	c5.313-3.375,10.563-7.313,12.5-9.625c1.938-2.313,5.375-6.344,5.75-7.563s0.906-3.688-3.375,0
	c-4.281,3.688-10.312,13.625-11.469,16.531c-1.156,2.906-1.344,4.281,0.781,3s4.594-2.875,4.75-3.125s-1.094,1.178-0.938,2.683
	c0.156,1.505,2.563,1.089,4.281,0"/>
<path style="fill:none;stroke:#FFFFFF;stroke-linecap:round;stroke-miterlimit:10;" d="M171.229,94.016
	c-1.531-0.281-5.375,0.906-6.375,2.625s-0.344,2.656,1.688,1.281s3.312-2.563,3.75-2.844c0.437-0.281-1.281,1.031-1.25,2.344
	s0.719,1.353,1.719,1.161c1-0.192,3.156-0.911,5.219-2.098c2.063-1.188,3.688-2.25,3.844-2.375c0.156-0.125-2.219,2-2.625,3.125
	c-0.406,1.125-0.438,2.656,1.688,1.219s2.594-2.656,2.625-2.875c0.031-0.219,0.188-1.031-0.656-1.938"/>
<path style="fill:none;stroke:#FFFFFF;stroke-linecap:round;stroke-miterlimit:10;" d="M196.354,78.704
	c0.313,0.875,0.938,1.938,2.25,1.625c1.313-0.313,7.469-4.031,8.5-4.313c1.031-0.281,3.031-1,2.594,1.313
	s-4.875,12.625-4.688,16.313s1.281,5.281,4.313,5.063c3.031-0.219,10.188-5.281,10.719-6.219s-2.406,2.646-2.188,3.854
	c0.219,1.208,1.531,0.958,1.813,0.864s4.406-1.813,6.812-2.938c2.406-1.125,2.625-1.969,2.625-1.969s-3.156,2.49-3.25,4.042
	c-0.094,1.552,1.141,1.489,2.594,0.349s2.109-2.188,2.297-3.078s-0.625-1.578-0.625-1.578"/>
<path style="fill:none;stroke:#FFFFFF;stroke-linecap:round;stroke-miterlimit:10;" d="M189.979,97.668
	c1.906-0.651,20.146-13.922,20.146-13.922s14.51-10.354,15.51-10.667"/>
<path style="fill:none;stroke:#FFFFFF;stroke-linecap:round;stroke-miterlimit:10;" d="M223.76,87.205
	c-0.438,0.968-0.844,1.155-0.844,1.155"/>
<path style="fill:none;stroke:#FFFFFF;stroke-linecap:round;stroke-miterlimit:10;" d="M232.229,94.11
	c1.031-0.625,2.188-1.469,2.438-1.094s-1.969,3.25-1.969,3.906s2.594-0.563,4.094-1.531s1.469-1.219,1.969-1.313
	s-1.594,1.563-1,2.844c0.594,1.281,3.313,0.5,4.719-0.281c1.406-0.781,6.781-3.656,7.063-3.969s-0.281-0.563-2.125,0.625
	s-3.063,2.844-3.281,3.469c-0.219,0.625,0.688,0.469,1.219,0.375c0.531-0.094,2.813-0.969,3.594-2c0.781-1.031,0.813-1,1-1.563
	s-4.281,7.031-5.281,8.406s-4.938,7.938-6.531,9.094c-1.594,1.156-3.385,2.167-3.26-1.333s7.292-8.875,9.333-10.167
	c2.042-1.292,6.833-4.292,7.792-4.625"/>
<path style="fill:none;stroke:#0071BC;stroke-width:0.5;stroke-miterlimit:10;" d="M90.198,59.766c0,0-0.185-0.81-0.115-1.625
	c0.052-0.604,0.302-1.094,0.302-1.094s-2.125,3.469-1.469,4.75c0.656,1.281,1.563,0.938,2.094,0.781s3.094-2.437,4.656-4.781
	c1.563-2.344,7.187-11.375,7.187-11.375"/>
<path style="fill:none;stroke:#0071BC;stroke-width:0.5;stroke-miterlimit:10;" d="M109.5,45.287c0,0-7.115,9.354-8.458,11.385
	c-1.344,2.031-2.875,4.219-3.031,5c-0.156,0.781,0.219,1.313,1.094,0.281s1.531-1.969,1.156-3.281s-0.375-1.844-1.969-2.5
	c0,0,2.481,0.561,2.938,0.75c0.979,0.406,2.509-0.125,2.509-0.125"/>
<path style="fill:none;stroke:#0071BC;stroke-width:0.5;stroke-miterlimit:10;" d="M101.667,61.61c0,0,2.188-0.938,2.469-1.594
	c0.281-0.656-0.531-0.875-1.563,0s-1.438,1.956-0.906,2.509s2.406-0.322,3.125-0.603"/>
<path style="fill:none;stroke:#0071BC;stroke-width:0.5;stroke-miterlimit:10;" d="M107.479,59.954l-1.344,1.688
	c0,0-1.219,1.534,0.25,1.064s3.438-1.501,4.375-3.001s-4.795,6.844-7.022,9.188s-4.04,3.531-4.04,3.531s-2.406,0.844-0.813-2.438
	s8.688-6.5,8.688-6.5s1.737-1.031,3.29-1.25"/>
<path style="fill:none;stroke:#0071BC;stroke-width:0.5;stroke-miterlimit:10;" d="M112.698,61.454
	c-1.281,2.563-1.656,2.906-1.656,2.906"/>
<path style="fill:none;stroke:#000000;stroke-miterlimit:10;" d="M123.26,64.798"/>
<path style="fill:none;stroke:#0071BC;stroke-width:0.5;stroke-miterlimit:10;" d="M123.239,64.601c0,0,0.198-3.094,1.781-6.219
	c1.583-3.125,4.625-7.417,6.75-9.375s3.458-2.563,4.25-2.781s2.75-0.51,0.625,2.406s-2.24,3.063-3.096,3.991
	c-1.473,1.598-4.123,4.384-6.279,6.009s-4.438,2.781-6.344,3.219s-4.063,0.938-5.781,0s-2.469-3.938,0.313-2.844
	s13.625,1.813,16.344,1.031"/>
<path style="fill:none;stroke:#0071BC;stroke-width:0.5;stroke-miterlimit:10;" d="M137.979,61.683
	c1.021-0.479,2.729-1.458,2.729-1.458s1.104-0.625,0.167,0.979s-1.354,1.938,0.063,1.208c1.417-0.729,3.125-1.875,3.313-2.042
	c0.188-0.167-0.958,1.063-0.958,1.875s0.458,0.479,1.708-0.125s2.396-1.542,2.563-1.646c0.167-0.104-0.958,1.063-0.729,1.833
	c0.229,0.771,1.479,0.375,1.938,0.292"/>
<path style="fill:none;stroke:#0071BC;stroke-width:0.5;stroke-miterlimit:10;" d="M103.25,101.537
	c3.75-2.333,17.917-11.75,24.667-15.292c6.75-3.542,12.5-8.104,13.021-10.083c0.521-1.979-1.833-1.479-3.771-0.979
	c-1.938,0.5-6.333,2.854-7.521,6.917s-1.104,6.979-2.687,9.396c-1.583,2.417-2.417,4.25-5.583,5.542
	c-3.167,1.292-6.833,1.417-10.042,1.208c-3.208-0.208-6.917-5.667-2.042-4.042s9.792,1.917,14.125,1.333
	c4.333-0.583,6.167-1.208,7.75-1.958"/>
<path style="fill:none;stroke:#0071BC;stroke-width:0.5;stroke-miterlimit:10;" d="M130.875,95.704
	c3.583-2.25,9.417-6.625,10.583-7.75c1.167-1.125,5.375-5.625,6.25-7.125s3.417-4.5,0.333-3.917
	c-3.083,0.583-11.542,13.375-12.333,15.083c-0.792,1.708-1.5,3.208-1.5,3.208s-2.333,4.958,0.5,3.125
	c2.833-1.833,5.125-3.458,5.125-3.458s-0.917,1.886-0.917,2.797s1.083,1.839,4.167,0"/>
<path style="fill:none;stroke:#50E3EA;stroke-width:0.5;stroke-miterlimit:10;" d="M151.604,88.641
	c-0.375,0.688-0.875,1.313-0.875,1.313"/>
<path style="fill:none;stroke:#50E3EA;stroke-width:0.5;stroke-miterlimit:10;" d="M143.104,97.266
	c1.188-0.375,3.688-2.313,4.563-3.25s-1.938,2.678-2,3.651c-0.063,0.974,0.337,1.536,2.169,0.849
	c1.831-0.688,2.894-1.313,2.894-1.313"/>
<path style="fill:none;stroke:#0071BC;stroke-width:0.5;stroke-miterlimit:10;" d="M151.604,95.766
	c5.313-3.375,10.563-7.313,12.5-9.625c1.938-2.313,5.375-6.344,5.75-7.563s0.906-3.688-3.375,0
	c-4.281,3.688-10.312,13.625-11.469,16.531c-1.156,2.906-1.344,4.281,0.781,3s4.594-2.875,4.75-3.125s-1.094,1.178-0.938,2.683
	c0.156,1.505,2.563,1.089,4.281,0"/>
<path style="fill:none;stroke:#0071BC;stroke-width:0.5;stroke-miterlimit:10;" d="M171.229,94.016
	c-1.531-0.281-5.375,0.906-6.375,2.625s-0.344,2.656,1.688,1.281s3.312-2.563,3.75-2.844c0.437-0.281-1.281,1.031-1.25,2.344
	s0.719,1.353,1.719,1.161c1-0.192,3.156-0.911,5.219-2.098c2.063-1.188,3.688-2.25,3.844-2.375c0.156-0.125-2.219,2-2.625,3.125
	c-0.406,1.125-0.438,2.656,1.688,1.219s2.594-2.656,2.625-2.875c0.031-0.219,0.188-1.031-0.656-1.938"/>
<path style="fill:none;stroke:#0071BC;stroke-width:0.5;stroke-miterlimit:10;" d="M196.354,78.704
	c0.313,0.875,0.938,1.938,2.25,1.625c1.313-0.313,7.469-4.031,8.5-4.313c1.031-0.281,3.031-1,2.594,1.313
	s-4.875,12.625-4.688,16.313s1.281,5.281,4.313,5.063c3.031-0.219,10.188-5.281,10.719-6.219s-2.406,2.646-2.188,3.854
	c0.219,1.208,1.531,0.958,1.813,0.864s4.406-1.813,6.812-2.938c2.406-1.125,2.625-1.969,2.625-1.969s-3.156,2.49-3.25,4.042
	c-0.094,1.552,1.141,1.489,2.594,0.349s2.109-2.188,2.297-3.078s-0.625-1.578-0.625-1.578"/>
<path style="fill:none;stroke:#0071BC;stroke-width:0.5;stroke-miterlimit:10;" d="M189.979,97.668
	c1.906-0.651,20.146-13.922,20.146-13.922s14.51-10.354,15.51-10.667"/>
<path style="fill:none;stroke:#0071BC;stroke-width:0.5;stroke-miterlimit:10;" d="M223.76,87.205
	c-0.438,0.968-0.844,1.155-0.844,1.155"/>
<path style="fill:none;stroke:#0071BC;stroke-width:0.5;stroke-miterlimit:10;" d="M232.229,94.11
	c1.031-0.625,2.188-1.469,2.438-1.094s-1.969,3.25-1.969,3.906s2.594-0.563,4.094-1.531s1.469-1.219,1.969-1.313
	s-1.594,1.563-1,2.844c0.594,1.281,3.313,0.5,4.719-0.281c1.406-0.781,6.781-3.656,7.063-3.969s-0.281-0.563-2.125,0.625
	s-3.063,2.844-3.281,3.469c-0.219,0.625,0.688,0.469,1.219,0.375c0.531-0.094,2.813-0.969,3.594-2c0.781-1.031,0.813-1,1-1.563
	s-4.281,7.031-5.281,8.406s-4.938,7.938-6.531,9.094c-1.594,1.156-3.385,2.167-3.26-1.333s7.292-8.875,9.333-10.167
	c2.042-1.292,6.833-4.292,7.792-4.625"/>
<path style="fill:#0071BC;" d="M140.084,49.862c0,0,0.438-0.134,0.696-0.306c0.108-0.072,0.311-0.272,0.413-0.407
	c0.172-0.227,0.28-0.513,0.285-0.749c0.008-0.376-0.214-0.755-0.325-0.852c-0.053-0.046-0.138-0.13-0.247-0.192
	c-0.107-0.061-0.238-0.101-0.363-0.107c-0.056-0.003-0.348-0.03-0.48,0.191c-0.046,0.078-0.098,0.23-0.004,0.317
	c0.071,0.066,0.287,0.069,0.407,0.13c0.109,0.055,0.268,0.16,0.359,0.289c0.142,0.201,0.085,0.563,0.03,0.738
	c-0.04,0.128-0.113,0.265-0.321,0.424c-0.144,0.11-0.55,0.315-0.55,0.315L140.084,49.862z"/>
</svg>
