<?xml version="1.0" encoding="iso-8859-1"?>
<!-- Generator: Adobe Illustrator 24.0.1, SVG Export Plug-In . SVG Version: 6.00 Build 0)  -->
<svg version="1.1" xmlns="http://www.w3.org/2000/svg" xmlns:xlink="http://www.w3.org/1999/xlink" x="0px" y="0px"
	 viewBox="0 0 340.157 170.079" style="enable-background:new 0 0 340.157 170.079;" xml:space="preserve">
<g id="&#x56FE;&#x5C42;_1" style="display:none;">
	<text transform="matrix(1 0 0 1 150.9318 25.669)" style="display:inline;fill:#0071BC; font-family:'Volstead'; font-size:24px;">Hey,I</text>
	
		<text transform="matrix(1 0 0 1 194.6842 25.669)" style="display:inline;fill:#0071BC; font-family:'AdobeSongStd-Light-GBpc-EUC-H'; font-size:24px;">&apos;</text>
	<text transform="matrix(1 0 0 1 200.4201 25.669)" style="display:inline;fill:#0071BC; font-family:'Volstead'; font-size:24px;">m</text>
	
		<text transform="matrix(1 0 0 1 165.4782 61.8472)" style="display:inline;fill:#0071BC; font-family:'AdobeSongStd-Light-GBpc-EUC-H'; font-size:12px;"> </text>
	
		<text transform="matrix(1 0 0 1 167.9621 61.8472)" style="display:inline;fill:#0071BC; font-family:'Volstead'; font-size:36px;">Sh</text>
	
		<text transform="matrix(1 0 0 1 206.0138 61.8472)" style="display:inline;fill:#50E3EA; font-family:'Volstead'; font-size:36px;">i</text>
	<text transform="matrix(1 0 0 1 213.6462 61.8472)" style="display:inline;"><tspan x="0" y="0" style="fill:#0071BC; font-family:'Volstead'; font-size:36px;">h</tspan><tspan x="12.815" y="0" style="fill:#0071BC; font-family:'Volstead'; font-size:36px;">ao</tspan></text>
	<text transform="matrix(1 0 0 1 251.6618 60.3345)" style="display:inline;"><tspan x="0" y="0" style="fill:#0071BC; font-family:'Volstead'; font-size:36px;">X</tspan><tspan x="26.532" y="0" style="fill:#0071BC; font-family:'Volstead'; font-size:36px;">i</tspan><tspan x="33.264" y="0" style="fill:#0071BC; font-family:'Volstead'; font-size:36px;">o</tspan><tspan x="42.371" y="0" style="fill:#0071BC; font-family:'Volstead'; font-size:36px; letter-spacing:-1;">n</tspan><tspan x="52.667" y="0" style="fill:#0071BC; font-family:'Volstead'; font-size:36px;">g</tspan></text>
</g>
<g id="&#x56FE;&#x5C42;_2">
	<path style="fill:none;stroke:#FFFFFF;stroke-width:2.5;stroke-linecap:round;stroke-linejoin:round;stroke-miterlimit:10;" d="
		M46.445,46.089c0,0-0.217-0.953-0.135-1.911c0.061-0.71,0.355-1.286,0.355-1.286s-2.499,4.079-1.727,5.586
		c0.772,1.507,1.837,1.102,2.462,0.919c0.625-0.184,3.638-2.866,5.475-5.622c1.837-2.756,8.451-13.376,8.451-13.376"/>
	<path style="fill:none;stroke:#FFFFFF;stroke-width:2.5;stroke-linecap:round;stroke-miterlimit:10;" d="M69.143,29.063
		c0,0-8.366,11-9.946,13.388c-1.58,2.389-3.381,4.961-3.565,5.88c-0.184,0.919,0.257,1.543,1.286,0.331
		c1.029-1.213,1.801-2.315,1.36-3.858c-0.441-1.543-0.441-2.168-2.315-2.94c0,0,2.918,0.659,3.454,0.882
		c1.151,0.478,2.95-0.147,2.95-0.147"/>
	<path style="fill:none;stroke:#FFFFFF;stroke-width:2.5;stroke-linecap:round;stroke-miterlimit:10;" d="M59.932,48.257
		c0,0,2.572-1.102,2.903-1.874c0.331-0.772-0.625-1.029-1.837,0c-1.213,1.029-1.69,2.3-1.066,2.95s2.83-0.378,3.675-0.709"/>
	<path style="fill:none;stroke:#FFFFFF;stroke-width:2.5;stroke-linecap:round;stroke-miterlimit:10;" d="M66.767,46.31l-1.58,1.984
		c0,0-1.433,1.804,0.294,1.251s4.042-1.765,5.145-3.529c1.102-1.764-5.639,8.048-8.258,10.804c-2.619,2.756-4.751,4.152-4.751,4.152
		s-2.83,0.992-0.955-2.866s10.216-7.643,10.216-7.643s2.042-1.213,3.869-1.47"/>
	<path style="fill:none;stroke:#FFFFFF;stroke-width:2.5;stroke-linecap:round;stroke-miterlimit:10;" d="M72.904,48.073
		c-1.507,3.013-1.948,3.418-1.948,3.418"/>
	<path style="fill:none;stroke:#FFFFFF;stroke-width:1.1759;stroke-linecap:round;stroke-miterlimit:10;" d="M85.324,52.005"/>
	<path style="fill:none;stroke:#FFFFFF;stroke-width:2.5;stroke-linecap:round;stroke-miterlimit:10;" d="M85.298,51.773
		c0,0,0.233-3.638,2.095-7.313c1.862-3.675,5.439-8.721,7.937-11.024c2.499-2.303,4.067-3.013,4.998-3.271
		c0.931-0.257,3.234-0.6,0.735,2.83s-2.634,3.601-3.64,4.693c-1.732,1.879-4.849,5.155-7.384,7.066
		c-2.536,1.911-5.218,3.271-7.46,3.785c-2.242,0.514-4.777,1.102-6.798,0c-2.021-1.102-2.903-4.63,0.367-3.344
		s16.022,2.131,19.219,1.213"/>
	<path style="fill:none;stroke:#FFFFFF;stroke-width:2.5;stroke-linecap:round;stroke-miterlimit:10;" d="M102.632,48.343
		c1.2-0.563,3.209-1.715,3.209-1.715s1.298-0.735,0.196,1.151s-1.592,2.278,0.073,1.421c1.666-0.857,3.675-2.205,3.895-2.401
		c0.22-0.196-1.127,1.249-1.127,2.205s0.539,0.563,2.009-0.147c1.47-0.71,2.817-1.813,3.013-1.935s-1.127,1.249-0.857,2.156
		c0.269,0.906,1.739,0.441,2.278,0.343"/>
	<path style="fill:none;stroke:#FFFFFF;stroke-width:1.622;stroke-linecap:round;stroke-miterlimit:10;" d="M55.208,127.601
		c6.083-3.785,29.061-19.059,40.01-24.804c10.949-5.745,20.275-13.145,21.12-16.356c0.845-3.21-2.974-2.399-6.116-1.588
		c-3.143,0.811-10.273,4.63-12.199,11.219c-1.926,6.59-1.791,11.32-4.359,15.24c-2.568,3.92-3.92,6.894-9.056,8.989
		c-5.136,2.095-11.084,2.298-16.288,1.96c-5.204-0.338-11.219-9.192-3.312-6.556c7.907,2.636,15.882,3.109,22.911,2.163
		c7.029-0.946,10.003-1.96,12.571-3.176"/>
	<path style="fill:none;stroke:#FFFFFF;stroke-width:1.622;stroke-linecap:round;stroke-miterlimit:10;" d="M100.017,118.139
		c5.812-3.65,15.274-10.746,17.167-12.571s8.718-9.124,10.138-11.557c1.419-2.433,5.542-7.299,0.541-6.353
		s-18.721,21.695-20.005,24.466s-2.433,5.204-2.433,5.204s-3.785,8.043,0.811,5.069s8.313-5.61,8.313-5.61s-1.487,3.059-1.487,4.537
		s1.757,2.983,6.758,0"/>
	<path style="fill:none;stroke:#FFFFFF;stroke-width:1.622;stroke-linecap:round;stroke-miterlimit:10;" d="M133.64,106.683
		c-0.608,1.115-1.419,2.129-1.419,2.129"/>
	<path style="fill:none;stroke:#FFFFFF;stroke-width:1.622;stroke-linecap:round;stroke-miterlimit:10;" d="M119.853,120.673
		c1.926-0.608,5.981-3.751,7.401-5.272c1.419-1.521-3.143,4.343-3.244,5.923c-0.101,1.579,0.547,2.492,3.518,1.377
		c2.971-1.115,4.694-2.129,4.694-2.129"/>
	<path style="fill:none;stroke:#FFFFFF;stroke-width:1.622;stroke-linecap:round;stroke-miterlimit:10;" d="M133.64,118.24
		c8.617-5.474,17.133-11.861,20.275-15.612c3.143-3.751,8.718-10.29,9.327-12.267s1.47-5.981-5.474,0s-16.727,22.1-18.603,26.814
		c-1.875,4.714-2.18,6.944,1.267,4.866s7.451-4.663,7.705-5.069c0.253-0.406-1.774,1.91-1.521,4.351
		c0.253,2.441,4.156,1.766,6.944,0"/>
	<path style="fill:none;stroke:#FFFFFF;stroke-width:1.622;stroke-linecap:round;stroke-miterlimit:10;" d="M165.473,115.402
		c-2.484-0.456-8.718,1.47-10.34,4.258c-1.622,2.788-0.558,4.309,2.737,2.078s5.373-4.156,6.083-4.613s-2.078,1.673-2.028,3.802
		s1.166,2.195,2.788,1.883c1.622-0.312,5.12-1.477,8.465-3.404c3.345-1.926,5.981-3.65,6.235-3.852
		c0.253-0.203-3.599,3.244-4.258,5.069s-0.71,4.309,2.737,1.977c3.447-2.332,4.207-4.309,4.258-4.663
		c0.051-0.355,0.304-1.673-1.064-3.143"/>
	<path style="fill:none;stroke:#FFFFFF;stroke-width:1.622;stroke-linecap:round;stroke-miterlimit:10;" d="M206.226,90.564
		c0.507,1.419,1.521,3.143,3.65,2.636s12.115-6.539,13.787-6.995c1.673-0.456,4.917-1.622,4.207,2.129
		c-0.71,3.751-7.907,20.478-7.603,26.459c0.304,5.981,2.078,8.566,6.995,8.212c3.341-0.241,17.11-9.6,17.386-10.087
		c0.862-1.521-3.903,4.293-3.548,6.252c0.355,1.959,2.484,1.554,2.94,1.402c0.456-0.152,7.147-2.94,11.05-4.765
		c3.903-1.825,4.258-3.193,4.258-3.193s-5.12,4.039-5.272,6.556c-0.152,2.517,1.85,2.416,4.207,0.566
		c2.357-1.85,3.421-3.548,3.726-4.993s-1.014-2.56-1.014-2.56"/>
	<path style="fill:none;stroke:#FFFFFF;stroke-width:1.622;stroke-linecap:round;stroke-miterlimit:10;" d="M195.886,121.324
		c3.092-1.057,32.677-22.582,32.677-22.582s23.536-16.795,25.158-17.302"/>
	<path style="fill:none;stroke:#FFFFFF;stroke-width:1.622;stroke-linecap:round;stroke-miterlimit:10;" d="M250.68,104.353
		c-0.71,1.569-1.369,1.874-1.369,1.874"/>
	<path style="fill:none;stroke:#FFFFFF;stroke-width:1.622;stroke-linecap:round;stroke-miterlimit:10;" d="M264.417,115.554
		c1.673-1.014,3.548-2.382,3.954-1.774c0.406,0.608-3.193,5.272-3.193,6.336s4.207-0.912,6.64-2.484
		c2.433-1.571,2.382-1.977,3.193-2.129c0.811-0.152-2.585,2.534-1.622,4.613c0.963,2.078,5.373,0.811,7.654-0.456
		s10.999-5.931,11.456-6.437c0.456-0.507-0.456-0.912-3.447,1.014c-2.991,1.926-4.967,4.613-5.322,5.626s1.115,0.76,1.977,0.608
		c0.862-0.152,4.562-1.571,5.829-3.244c1.267-1.673,1.318-1.622,1.622-2.534c0.304-0.912-6.944,11.405-8.566,13.635
		c-1.622,2.23-8.009,12.875-10.594,14.75c-2.585,1.875-5.491,3.514-5.289-2.163s11.827-14.396,15.139-16.491
		c3.312-2.095,11.084-6.961,12.638-7.502"/>
	<path style="fill:none;stroke:#0071BC;stroke-linecap:round;stroke-linejoin:round;stroke-miterlimit:10;" d="M46.445,46.089
		c0,0-0.217-0.953-0.135-1.911c0.061-0.71,0.355-1.286,0.355-1.286s-2.499,4.079-1.727,5.586c0.772,1.507,1.837,1.102,2.462,0.919
		c0.625-0.184,3.638-2.866,5.475-5.622c1.837-2.756,8.451-13.376,8.451-13.376"/>
	<path style="fill:none;stroke:#0071BC;stroke-linecap:round;stroke-miterlimit:10;" d="M69.143,29.063c0,0-8.366,11-9.946,13.388
		c-1.58,2.389-3.381,4.961-3.565,5.88c-0.184,0.919,0.257,1.543,1.286,0.331c1.029-1.213,1.801-2.315,1.36-3.858
		c-0.441-1.543-0.441-2.168-2.315-2.94c0,0,2.918,0.659,3.454,0.882c1.151,0.478,2.95-0.147,2.95-0.147"/>
	<path style="fill:none;stroke:#0071BC;stroke-linecap:round;stroke-miterlimit:10;" d="M59.932,48.257c0,0,2.572-1.102,2.903-1.874
		c0.331-0.772-0.625-1.029-1.837,0c-1.213,1.029-1.69,2.3-1.066,2.95s2.83-0.378,3.675-0.709"/>
	<path style="fill:none;stroke:#0071BC;stroke-linecap:round;stroke-miterlimit:10;" d="M66.767,46.31l-1.58,1.984
		c0,0-1.433,1.804,0.294,1.251s4.042-1.765,5.145-3.529c1.102-1.764-5.639,8.048-8.258,10.804c-2.619,2.756-4.751,4.152-4.751,4.152
		s-2.83,0.992-0.955-2.866s10.216-7.643,10.216-7.643s2.042-1.213,3.869-1.47"/>
	<path style="fill:none;stroke:#0071BC;stroke-linecap:round;stroke-miterlimit:10;" d="M72.904,48.073
		c-1.507,3.013-1.948,3.418-1.948,3.418"/>
	<path style="fill:none;stroke:#000000;stroke-width:1.1759;stroke-miterlimit:10;" d="M85.324,52.005"/>
	<path style="fill:none;stroke:#0071BC;stroke-linecap:round;stroke-miterlimit:10;" d="M85.298,51.773c0,0,0.233-3.638,2.095-7.313
		c1.862-3.675,5.439-8.721,7.937-11.024c2.499-2.303,4.067-3.013,4.998-3.271c0.931-0.257,3.234-0.6,0.735,2.83
		s-2.634,3.601-3.64,4.693c-1.732,1.879-4.849,5.155-7.384,7.066c-2.536,1.911-5.218,3.271-7.46,3.785
		c-2.242,0.514-4.777,1.102-6.798,0c-2.021-1.102-2.903-4.63,0.367-3.344s16.022,2.131,19.219,1.213"/>
	<path style="fill:none;stroke:#0071BC;stroke-linecap:round;stroke-miterlimit:10;" d="M102.632,48.343
		c1.2-0.563,3.209-1.715,3.209-1.715s1.298-0.735,0.196,1.151s-1.592,2.278,0.073,1.421c1.666-0.857,3.675-2.205,3.895-2.401
		c0.22-0.196-1.127,1.249-1.127,2.205s0.539,0.563,2.009-0.147c1.47-0.71,2.817-1.813,3.013-1.935s-1.127,1.249-0.857,2.156
		c0.269,0.906,1.739,0.441,2.278,0.343"/>
	<path style="fill:none;stroke:#0071BC;stroke-width:0.811;stroke-linecap:round;stroke-miterlimit:10;" d="M55.208,127.601
		c6.083-3.785,29.061-19.059,40.01-24.804c10.949-5.745,20.275-13.145,21.12-16.356c0.845-3.21-2.974-2.399-6.116-1.588
		c-3.143,0.811-10.273,4.63-12.199,11.219c-1.926,6.59-1.791,11.32-4.359,15.24c-2.568,3.92-3.92,6.894-9.056,8.989
		c-5.136,2.095-11.084,2.298-16.288,1.96c-5.204-0.338-11.219-9.192-3.312-6.556c7.907,2.636,15.882,3.109,22.911,2.163
		c7.029-0.946,10.003-1.96,12.571-3.176"/>
	<path style="fill:none;stroke:#0071BC;stroke-width:0.811;stroke-linecap:round;stroke-miterlimit:10;" d="M100.017,118.139
		c5.812-3.65,15.274-10.746,17.167-12.571s8.718-9.124,10.138-11.557c1.419-2.433,5.542-7.299,0.541-6.353
		s-18.721,21.695-20.005,24.466s-2.433,5.204-2.433,5.204s-3.785,8.043,0.811,5.069s8.313-5.61,8.313-5.61s-1.487,3.059-1.487,4.537
		s1.757,2.983,6.758,0"/>
	<path style="fill:none;stroke:#0071BC;stroke-width:0.811;stroke-linecap:round;stroke-miterlimit:10;" d="M133.64,106.683
		c-0.608,1.115-1.419,2.129-1.419,2.129"/>
	<path style="fill:none;stroke:#0071BC;stroke-width:0.811;stroke-linecap:round;stroke-miterlimit:10;" d="M119.853,120.673
		c1.926-0.608,5.981-3.751,7.401-5.272c1.419-1.521-3.143,4.343-3.244,5.923c-0.101,1.579,0.547,2.492,3.518,1.377
		c2.971-1.115,4.694-2.129,4.694-2.129"/>
	<path style="fill:none;stroke:#0071BC;stroke-width:0.811;stroke-linecap:round;stroke-miterlimit:10;" d="M133.64,118.24
		c8.617-5.474,17.133-11.861,20.275-15.612c3.143-3.751,8.718-10.29,9.327-12.267s1.47-5.981-5.474,0s-16.727,22.1-18.603,26.814
		c-1.875,4.714-2.18,6.944,1.267,4.866s7.451-4.663,7.705-5.069c0.253-0.406-1.774,1.91-1.521,4.351
		c0.253,2.441,4.156,1.766,6.944,0"/>
	<path style="fill:none;stroke:#0071BC;stroke-width:0.811;stroke-linecap:round;stroke-miterlimit:10;" d="M165.473,115.402
		c-2.484-0.456-8.718,1.47-10.34,4.258c-1.622,2.788-0.558,4.309,2.737,2.078s5.373-4.156,6.083-4.613s-2.078,1.673-2.028,3.802
		s1.166,2.195,2.788,1.883c1.622-0.312,5.12-1.477,8.465-3.404c3.345-1.926,5.981-3.65,6.235-3.852
		c0.253-0.203-3.599,3.244-4.258,5.069s-0.71,4.309,2.737,1.977c3.447-2.332,4.207-4.309,4.258-4.663
		c0.051-0.355,0.304-1.673-1.064-3.143"/>
	<path style="fill:none;stroke:#0071BC;stroke-width:0.811;stroke-linecap:round;stroke-miterlimit:10;" d="M244.594,113.018
		c0.862-1.521-3.903,4.293-3.548,6.252c0.355,1.959,2.484,1.554,2.94,1.402c0.456-0.152,7.147-2.94,11.05-4.765
		c3.903-1.825,4.258-3.193,4.258-3.193s-5.12,4.039-5.272,6.556c-0.152,2.517,1.85,2.416,4.207,0.566
		c2.357-1.85,3.421-3.548,3.726-4.993s-1.014-2.56-1.014-2.56"/>
	<path style="fill:none;stroke:#50E3EA;stroke-width:0.811;stroke-linecap:round;stroke-miterlimit:10;" d="M206.226,90.564
		c0.507,1.419,1.521,3.143,3.65,2.636s12.115-6.539,13.787-6.995c1.673-0.456,4.917-1.622,4.207,2.129
		c-0.71,3.751-7.907,20.478-7.603,26.459c0.304,5.981,2.078,8.566,6.995,8.212c4.917-0.355,18.516-11.42,17.386-10.087"/>
	<path style="fill:none;stroke:#50E3EA;stroke-width:0.811;stroke-miterlimit:10;" d="M195.886,121.324
		c3.092-1.057,32.677-22.582,32.677-22.582s23.536-16.795,25.158-17.302"/>
	<path style="fill:none;stroke:#0071BC;stroke-width:0.811;stroke-linecap:round;stroke-miterlimit:10;" d="M250.68,104.353
		c-0.71,1.569-1.369,1.874-1.369,1.874"/>
	<path style="fill:none;stroke:#0071BC;stroke-width:0.811;stroke-linecap:round;stroke-miterlimit:10;" d="M264.417,115.554
		c1.673-1.014,3.548-2.382,3.954-1.774c0.406,0.608-3.193,5.272-3.193,6.336s4.207-0.912,6.64-2.484
		c2.433-1.571,2.382-1.977,3.193-2.129c0.811-0.152-2.585,2.534-1.622,4.613c0.963,2.078,5.373,0.811,7.654-0.456
		s10.999-5.931,11.456-6.437c0.456-0.507-0.456-0.912-3.447,1.014c-2.991,1.926-4.967,4.613-5.322,5.626s1.115,0.76,1.977,0.608
		c0.862-0.152,4.562-1.571,5.829-3.244c1.267-1.673,1.318-1.622,1.622-2.534c0.304-0.912-6.944,11.405-8.566,13.635
		c-1.622,2.23-8.009,12.875-10.594,14.75c-2.585,1.875-5.491,3.514-5.289-2.163s11.827-14.396,15.139-16.491
		c3.312-2.095,11.084-6.961,12.638-7.502"/>
	<path style="fill:none;stroke:#FFFFFF;stroke-linecap:round;stroke-linejoin:round;stroke-miterlimit:10;" d="M105.091,36.227
		c0,0,0.515-0.157,0.819-0.36c0.127-0.085,0.366-0.319,0.486-0.478c0.202-0.266,0.329-0.603,0.335-0.88
		c0.009-0.442-0.251-0.888-0.382-1.002c-0.062-0.054-0.162-0.153-0.29-0.226c-0.126-0.072-0.28-0.118-0.427-0.126
		c-0.066-0.003-0.409-0.035-0.564,0.224c-0.054,0.091-0.116,0.27-0.005,0.372c0.084,0.077,0.338,0.081,0.479,0.153
		c0.129,0.065,0.316,0.189,0.422,0.34c0.167,0.237,0.1,0.662,0.035,0.868c-0.047,0.151-0.133,0.312-0.378,0.498
		c-0.17,0.13-0.646,0.37-0.646,0.37L105.091,36.227z"/>
	<path style="fill:#0071BC;" d="M105.108,36.202c0,0,0.515-0.157,0.819-0.36c0.127-0.085,0.366-0.319,0.486-0.478
		c0.202-0.266,0.329-0.603,0.335-0.88c0.009-0.442-0.251-0.888-0.382-1.002c-0.062-0.054-0.162-0.153-0.29-0.226
		c-0.126-0.072-0.28-0.118-0.427-0.126c-0.066-0.003-0.409-0.035-0.564,0.224c-0.054,0.091-0.116,0.27-0.005,0.372
		c0.084,0.077,0.338,0.081,0.479,0.153c0.129,0.065,0.316,0.189,0.422,0.34c0.167,0.237,0.1,0.662,0.035,0.868
		c-0.047,0.151-0.133,0.312-0.378,0.498c-0.17,0.13-0.646,0.37-0.646,0.37L105.108,36.202z"/>
</g>
</svg>
